<?xml version="1.0" standalone="no"?>
<!DOCTYPE svg PUBLIC "-//W3C//DTD SVG 20010904//EN"
 "http://www.w3.org/TR/2001/REC-SVG-20010904/DTD/svg10.dtd">
<svg version="1.0" xmlns="http://www.w3.org/2000/svg"
 width="1085.000000pt" height="1085.000000pt" viewBox="0 0 1085.000000 1085.000000"
 preserveAspectRatio="xMidYMid meet">
<metadata>
Created by potrace 1.14, written by Peter Selinger 2001-2017
</metadata>
<g transform="translate(0.000000,1085.000000) scale(0.100000,-0.100000)"
fill="#000000" stroke="none">
<path d="M5020 10795 c-333 -28 -572 -68 -889 -146 -1396 -344 -2598 -1243
-3352 -2506 -101 -169 -287 -551 -362 -743 -243 -619 -359 -1201 -374 -1866
-28 -1275 386 -2499 1181 -3490 854 -1066 2090 -1775 3431 -1968 223 -33 407
-47 671 -53 1042 -23 2048 247 2934 790 381 234 718 504 1050 843 787 805
1303 1838 1470 2949 70 461 78 970 24 1440 -115 994 -517 1955 -1148 2741
-296 370 -680 735 -1056 1005 -709 509 -1526 841 -2375 963 -345 50 -889 69
-1205 41z m1030 -809 c259 -31 316 -42 580 -107 315 -78 544 -162 845 -308
453 -221 842 -486 1184 -806 492 -461 908 -1096 1146 -1750 128 -350 201 -644
254 -1022 82 -576 63 -1073 -65 -1703 -43 -212 -48 -232 -134 -490 -152 -457
-355 -850 -629 -1214 -63 -83 -139 -180 -170 -216 -31 -35 -67 -78 -81 -95
-84 -102 -316 -331 -455 -450 -281 -241 -720 -526 -1035 -673 -266 -124 -721
-279 -909 -308 -20 -3 -38 -8 -42 -9 -12 -8 -344 -66 -459 -80 -386 -47 -886
-42 -1245 15 -411 64 -604 113 -965 247 -676 251 -1232 609 -1715 1104 -314
321 -547 645 -758 1050 -84 161 -217 470 -271 629 -58 173 -156 573 -181 745
-4 22 -10 56 -15 75 -8 32 -22 138 -36 265 -9 93 -24 530 -19 585 2 30 7 93
10 140 20 297 33 399 86 670 67 345 154 622 298 959 75 175 88 201 208 416
339 606 774 1090 1353 1505 329 236 800 477 1196 613 365 125 731 203 1054
223 52 4 97 9 100 11 13 12 742 -6 870 -21z"/>
<path d="M5195 9479 c-289 -18 -648 -91 -960 -194 -260 -86 -645 -264 -915
-424 -424 -252 -863 -666 -1191 -1124 -272 -381 -513 -906 -620 -1353 -81
-341 -121 -676 -123 -1044 -1 -321 24 -605 74 -815 95 -403 116 -474 210 -710
85 -213 129 -307 215 -465 311 -573 766 -1071 1290 -1412 453 -295 1015 -525
1495 -612 323 -58 450 -73 695 -82 478 -17 1093 76 1535 233 785 278 1419 744
1905 1397 246 331 436 691 562 1061 103 306 146 483 188 765 50 346 62 560 45
835 -23 386 -74 672 -185 1035 -202 659 -528 1216 -1003 1711 -398 415 -998
794 -1552 979 -583 195 -1058 257 -1665 219z m705 -284 c782 -73 1523 -405
2155 -966 394 -349 653 -688 873 -1141 87 -179 187 -432 177 -448 -4 -6 -37
17 -74 50 -57 51 -70 68 -85 117 -24 80 -141 315 -223 450 -37 62 -89 148
-116 192 -53 89 -94 134 -60 66 25 -49 36 -96 25 -112 -5 -8 -29 20 -69 80
-266 398 -725 823 -1167 1082 -227 133 -552 275 -801 351 -320 98 -591 142
-925 151 -223 6 -211 4 -425 87 -97 37 -97 38 15 49 103 11 561 5 700 -8z
m-1065 -151 c194 -23 459 -121 655 -243 l75 -46 -193 -3 c-186 -2 -193 -2
-239 22 -64 32 -240 91 -333 111 -157 34 -465 30 -593 -7 -71 -21 -100 23 -47
72 83 78 419 125 675 94z m1472 -270 c330 -100 746 -316 979 -508 174 -144
212 -179 290 -267 271 -307 451 -602 553 -907 33 -100 36 -111 22 -96 -5 5
-23 53 -40 106 -69 209 -247 523 -416 733 -204 254 -294 330 -735 617 -173
113 -431 232 -690 319 -145 48 -120 51 37 3z m-1723 -23 c158 -42 158 -42 152
-67 -4 -13 -20 -52 -36 -87 -17 -36 -30 -71 -30 -77 0 -14 -6 -13 -175 25
-110 25 -139 28 -335 29 -247 1 -294 -3 -445 -39 -169 -40 -259 -74 -347 -133
-70 -46 -37 -56 72 -22 55 17 186 53 240 65 8 2 47 11 85 20 47 11 131 18 255
20 l185 3 -170 -8 c-229 -12 -259 -18 -520 -106 -96 -33 -179 -45 -203 -30 -7
4 -12 16 -12 27 0 29 -16 23 -52 -22 -18 -23 -96 -83 -178 -138 -80 -54 -174
-117 -210 -142 -71 -48 -333 -307 -439 -434 -152 -181 -277 -387 -420 -685
-17 -36 -31 -59 -31 -52 0 20 130 286 189 387 137 232 285 417 516 648 77 76
351 278 487 358 37 22 46 34 60 80 23 70 60 114 147 173 162 108 401 192 656
230 17 2 131 3 255 1 192 -2 237 -6 304 -24z m1851 -185 c282 -125 501 -273
693 -465 48 -48 96 -103 107 -123 19 -36 19 -37 0 -58 -10 -11 -20 -18 -23
-15 -3 3 -11 0 -19 -7 -11 -9 -33 8 -112 89 -55 55 -112 106 -129 114 -17 7
-29 16 -26 20 2 4 -8 17 -22 28 -15 12 -24 24 -21 28 4 3 15 0 24 -8 16 -13
17 -12 4 3 -8 11 -21 16 -35 13 -15 -4 -35 7 -71 40 -27 24 -53 45 -57 45 -5
0 -8 7 -8 16 0 8 -4 13 -9 10 -5 -3 -58 27 -119 67 -61 39 -118 77 -128 83
-14 8 -5 10 37 7 l54 -3 -65 39 c-36 22 -96 56 -135 77 -162 86 -134 86 60 0z
m-353 -246 c32 -80 99 -257 149 -395 50 -137 102 -277 116 -310 14 -33 58
-150 99 -260 40 -110 101 -279 137 -375 35 -96 117 -323 182 -505 107 -299
270 -744 424 -1155 32 -85 104 -281 161 -435 137 -374 208 -562 312 -830 31
-82 54 -152 50 -156 -4 -3 -81 -25 -172 -49 -128 -33 -534 -163 -642 -205 -18
-7 -38 40 -143 340 -83 239 -135 377 -148 393 -7 9 -236 12 -1106 10 l-1096
-3 -167 -490 c-92 -269 -172 -505 -178 -522 l-12 -33 -459 0 c-252 0 -459 1
-459 3 0 13 314 907 546 1557 41 113 149 420 314 890 34 96 97 276 142 400 44
124 102 288 128 365 27 77 82 235 124 350 43 116 112 309 156 430 43 121 113
315 155 430 42 116 112 309 155 430 43 121 83 232 89 248 l11 27 537 -2 538
-3 57 -145z m1318 43 c224 -135 473 -359 641 -578 221 -287 405 -658 426 -857
10 -95 -34 -119 -86 -48 -28 40 -29 40 -35 15 -12 -47 32 -115 74 -115 6 0 23
12 37 26 31 31 43 20 43 -44 0 -36 -7 -51 -40 -91 -40 -47 -46 -64 -34 -95 8
-21 24 -20 54 4 14 11 28 20 33 20 4 0 7 -28 7 -62 0 -62 -17 -98 -46 -98 -6
0 -25 -15 -41 -32 -32 -36 -77 -70 -107 -81 -18 -7 -19 -3 -13 73 26 390 -119
855 -396 1265 -155 229 -329 425 -506 573 -160 133 -164 138 -151 163 15 28
44 20 140 -38z m-959 -58 c59 -31 260 -166 319 -214 53 -43 188 -178 235 -235
53 -66 135 -188 135 -203 0 -30 -28 -10 -39 27 -40 134 -387 463 -639 607 -81
46 -89 60 -11 18z m-2171 -125 c47 -6 90 -16 95 -22 7 -7 2 -9 -16 -5 -14 4
-77 9 -140 13 -63 3 -134 7 -159 8 -25 2 -110 0 -190 -5 -220 -11 -380 -54
-595 -162 -49 -25 -107 -52 -128 -61 -43 -17 -180 -107 -173 -113 2 -2 21 6
42 18 l39 21 -30 -32 c-66 -70 -158 -110 -128 -56 21 37 178 143 313 211 230
115 350 155 565 190 100 16 356 13 505 -5z m-551 -54 c-2 -2 -22 -6 -44 -9
-28 -5 -34 -4 -20 3 19 8 73 14 64 6z m-92 -22 c-3 -3 -12 -4 -19 -1 -8 3 -5
6 6 6 11 1 17 -2 13 -5z m531 -311 c20 -5 -60 -8 -205 -8 -269 0 -316 -6 -503
-67 -162 -53 -159 -52 -130 -34 14 9 79 33 145 55 105 34 146 44 265 65 41 7
392 -2 428 -11z m133 -29 c30 -9 58 -20 63 -24 5 -5 -20 -1 -55 10 -35 10 -73
21 -84 23 -19 5 -19 5 1 6 11 0 45 -6 75 -15z m2895 -41 c7 -10 14 -26 14 -35
0 -10 4 -18 9 -18 5 0 13 -9 16 -20 7 -21 -36 -110 -62 -132 -8 -6 0 15 18 47
l32 58 -27 51 c-14 28 -26 54 -26 59 0 12 12 8 26 -10z m269 -110 c20 -48 43
-99 50 -113 13 -27 28 -80 22 -80 -2 0 -21 44 -42 98 -21 53 -42 102 -46 107
-13 18 -38 86 -30 81 4 -3 25 -45 46 -93z m-4527 6 c17 -6 32 -14 32 -17 0 -4
-39 -36 -85 -71 -115 -88 -282 -259 -412 -420 -59 -74 -118 -141 -130 -148
-19 -13 -24 -12 -42 6 -17 17 -18 25 -9 57 26 96 186 312 346 466 156 150 184
162 300 127z m4630 -261 c15 -57 8 -60 -11 -4 -9 26 -12 46 -8 46 5 0 13 -19
19 -42z m1052 -38 c6 -11 8 -20 6 -20 -3 0 -10 9 -16 20 -6 11 -8 20 -6 20 3
0 10 -9 16 -20z m-4751 -10 c78 -15 161 -58 215 -114 78 -80 81 -96 44 -211
l-31 -98 -32 69 c-68 148 -202 214 -362 180 -161 -33 -350 -167 -507 -359 -42
-51 -56 -55 -121 -32 -48 17 -49 17 -148 -114 -40 -52 -87 -109 -104 -126 -18
-17 -40 -48 -48 -68 -9 -23 -22 -37 -33 -37 -9 0 -36 -23 -60 -50 -43 -50 -85
-66 -95 -37 -15 43 114 244 301 467 135 162 230 257 340 340 70 52 212 130
283 156 110 39 257 53 358 34z m3718 -32 c-3 -8 -6 -5 -6 6 -1 11 2 17 5 13 3
-3 4 -12 1 -19z m10 -50 c-3 -7 -5 -2 -5 12 0 14 2 19 5 13 2 -7 2 -19 0 -25z
m-4397 -7 c0 -5 -55 -44 -122 -88 -268 -173 -587 -513 -771 -820 -175 -292
-328 -686 -373 -963 -5 -25 -8 -47 -9 -50 -1 -3 -5 -36 -9 -75 -4 -38 -9 -79
-11 -90 -2 -11 -4 -28 -4 -37 -1 -24 -13 -23 -29 3 -30 47 -26 194 9 359 5 25
11 54 14 65 2 11 10 51 19 90 8 38 13 71 11 73 -8 8 -80 -291 -101 -417 -9
-53 -17 -100 -18 -106 -1 -5 -5 -15 -8 -21 -4 -5 -10 -68 -14 -138 -6 -104
-10 -129 -23 -134 -9 -3 -19 -10 -23 -16 -11 -17 -9 226 3 350 15 154 71 400
136 599 123 373 390 808 642 1046 248 235 483 372 649 378 17 1 32 -3 32 -8z
m4407 -33 c-3 -8 -6 -5 -6 6 -1 11 2 17 5 13 3 -3 4 -12 1 -19z m1101 -23 c-3
-3 -9 2 -12 12 -6 14 -5 15 5 6 7 -7 10 -15 7 -18z m-1084 -117 c-9 -75 -70
-117 -127 -86 -31 16 -48 41 -36 53 5 5 9 22 9 37 0 15 5 28 10 28 6 0 10 -7
10 -15 0 -20 44 -65 63 -65 8 0 25 8 38 19 21 17 23 27 22 87 0 61 0 65 8 29
5 -22 6 -61 3 -87z m1110 66 c3 -8 2 -12 -4 -9 -6 3 -10 10 -10 16 0 14 7 11
14 -7z m57 -132 c27 -80 17 -75 -13 5 -40 107 -40 110 -23 79 9 -16 25 -53 36
-84z m-1309 -127 c3 -3 22 -9 42 -12 30 -5 42 -1 61 17 40 38 40 15 -1 -29
-44 -49 -77 -61 -104 -36 -23 21 -27 44 -5 25 19 -16 19 -10 0 26 -8 16 -14
45 -14 64 1 34 2 34 8 -7 4 -24 10 -45 13 -48z m-5289 -4 c10 -8 32 -12 56 -9
31 3 37 1 29 -9 -6 -7 -26 -13 -45 -13 -43 0 -83 37 -83 77 l1 28 13 -30 c7
-17 20 -36 29 -44z m1630 -15 c9 -7 17 -24 17 -38 0 -20 -14 -35 -69 -71 -77
-51 -114 -104 -132 -188 -24 -113 29 -266 127 -370 l57 -59 -13 -41 c-24 -71
-30 -74 -78 -39 -55 40 -134 147 -172 235 -17 39 -29 59 -26 45 8 -40 10 -219
3 -226 -10 -10 -41 71 -67 174 -34 141 -21 255 46 397 32 67 104 148 156 174
49 24 124 27 151 7z m77 -240 c0 -9 -30 -14 -35 -6 -4 6 3 10 14 10 12 0 21
-2 21 -4z m5125 -117 c74 -68 131 -168 199 -352 43 -116 56 -187 34 -187 -22
0 -38 22 -123 175 -77 137 -140 230 -185 270 -29 26 -59 86 -52 105 15 45 71
40 127 -11z m-1 -233 c17 -18 39 -47 48 -63 l18 -31 -43 15 c-54 19 -107 59
-107 82 0 43 43 42 84 -3z m-1043 -16 c50 -52 63 -102 56 -215 -4 -69 -13
-111 -37 -172 -61 -160 -214 -338 -367 -428 -77 -45 -77 -45 -89 -23 -7 12
-10 27 -8 32 3 6 38 35 79 65 93 68 164 138 221 217 64 90 131 244 105 244 -5
0 -40 -44 -77 -97 -76 -108 -171 -207 -258 -268 -31 -22 -80 -57 -108 -77 -29
-21 -56 -38 -60 -38 -9 0 -23 32 -34 74 -4 19 8 33 85 95 209 166 345 374 395
604 10 42 50 37 97 -13z m1099 -303 c27 -35 10 -25 -45 26 -27 26 -28 28 -5
17 14 -7 36 -26 50 -43z m-205 -282 c176 -46 305 -184 378 -405 38 -113 51
-237 44 -413 -18 -429 -177 -779 -501 -1099 -27 -27 -51 -46 -54 -44 -3 3 1
13 9 22 8 10 13 20 12 23 -2 3 2 21 8 39 9 27 15 32 44 32 25 0 32 4 31 17 0
10 4 18 11 18 14 0 93 117 93 137 0 8 16 53 36 102 20 48 33 90 30 93 -2 3
-22 -21 -42 -53 -44 -69 -90 -128 -194 -243 -190 -212 -511 -395 -757 -431
-137 -20 -138 -10 -5 49 130 57 283 143 397 224 179 127 367 321 478 493 229
355 312 825 190 1081 -52 112 -162 200 -270 218 -58 9 -140 -16 -185 -57 -86
-77 -98 -162 -45 -305 30 -82 32 -97 32 -213 0 -111 -3 -130 -23 -168 -12 -24
-20 -48 -16 -53 3 -5 2 -8 -3 -7 -5 2 -26 -16 -47 -39 -21 -24 -44 -43 -50
-43 -7 0 -39 -26 -72 -59 -34 -32 -72 -64 -85 -71 -23 -11 -23 -11 2 12 85 75
168 213 189 313 17 83 7 147 -44 272 -74 181 -80 255 -32 359 44 94 117 157
231 196 62 22 133 23 210 3z m-6559 -391 c-14 -76 -25 -125 -25 -108 -1 44 38
258 46 251 1 -2 -8 -66 -21 -143z m5945 109 c-23 -42 -131 -127 -221 -175
-119 -63 -368 -148 -434 -148 -40 0 1 17 94 40 210 51 364 124 487 231 43 37
79 68 81 69 1 0 -2 -8 -7 -17z m-5283 -108 c124 -67 174 -142 180 -270 3 -72
1 -85 -25 -135 -19 -38 -42 -64 -73 -85 -96 -64 -240 -34 -240 50 0 11 6 14
24 9 61 -15 148 50 162 120 8 46 -18 100 -68 140 -52 41 -124 47 -197 16 -179
-78 -215 -344 -74 -552 91 -134 258 -239 409 -257 81 -10 98 -24 79 -68 -11
-27 -20 -33 -58 -38 -58 -9 -145 15 -265 72 -111 52 -204 138 -270 248 -48 80
-53 80 -18 1 75 -168 251 -333 408 -382 29 -9 71 -22 93 -28 43 -13 58 -43 32
-64 -19 -16 -127 2 -193 32 -205 94 -364 279 -435 506 -20 64 -24 96 -24 220
0 141 1 147 33 227 52 129 135 208 267 256 73 26 187 18 253 -18z m-689 -197
c-4 -29 -8 -90 -8 -136 -1 -47 -5 -81 -10 -78 -12 8 0 234 14 256 11 18 12 11
4 -42z m4 -305 c12 -146 51 -290 117 -430 47 -100 44 -110 -4 -15 -40 80 -89
216 -105 292 -26 127 -37 230 -24 230 6 0 13 -35 16 -77z m855 -160 c-21 -8
-38 -19 -38 -24 0 -5 -5 -9 -12 -9 -6 0 -1 11 12 25 14 15 34 25 49 24 23 0
22 -2 -11 -16z m5567 -240 c-28 -43 -194 -209 -239 -240 -23 -15 -66 -46 -96
-69 -74 -56 -265 -164 -375 -213 -89 -39 -216 -81 -555 -181 -478 -141 -714
-230 -1005 -380 -281 -144 -581 -344 -955 -637 -145 -114 -465 -321 -477 -309
-2 2 29 22 69 44 40 22 105 63 143 91 188 136 250 182 337 248 266 205 435
323 633 444 123 74 341 189 430 226 28 12 95 41 150 66 136 60 383 140 805
262 305 89 490 164 675 276 140 85 301 217 389 318 76 88 108 112 71 54z
m-6219 -180 c23 -31 24 -34 5 -18 -22 19 -46 55 -38 55 3 0 17 -17 33 -37z
m2460 -46 c41 -21 90 -70 111 -110 8 -17 18 -58 21 -92 5 -72 -21 -145 -69
-191 l-29 -28 7 34 c10 44 10 136 0 173 -10 37 -74 107 -114 124 -42 17 -105
17 -147 -1 -18 -8 -51 -35 -72 -60 -49 -59 -69 -61 -61 -4 8 61 52 118 117
151 49 26 63 28 130 24 42 -2 89 -11 106 -20z m1513 -159 c5 -13 16 -39 25
-59 l15 -35 -107 -2 c-224 -4 -320 -21 -518 -89 l-101 -34 26 -28 c14 -15 33
-25 41 -24 19 4 -9 -9 -80 -37 -172 -69 -515 -270 -630 -369 -47 -41 -111 -83
-117 -77 -6 6 24 50 101 146 90 112 130 153 248 254 213 184 461 306 713 350
113 20 126 21 263 24 109 3 112 2 121 -20z m-4343 -53 c8 -19 12 -35 10 -35
-6 0 -46 89 -46 99 1 9 19 -24 36 -64z m2516 -179 c68 -51 61 -212 -15 -345
-39 -69 -153 -190 -234 -247 -210 -151 -548 -229 -831 -194 -143 18 -198 48
-159 87 16 16 40 18 205 19 103 1 196 3 207 6 11 3 38 8 60 12 138 24 298 86
398 155 110 75 203 181 251 286 10 23 20 74 23 120 3 44 10 88 15 98 10 20 55
22 80 3z m1815 -160 c68 -13 131 -41 119 -53 -20 -21 -149 -53 -211 -53 -183
0 -340 -39 -555 -135 -159 -72 -364 -199 -500 -310 -67 -56 -75 -75 -30 -75
39 0 87 25 230 118 185 121 429 253 464 251 6 0 -12 -11 -40 -23 -69 -32 -242
-132 -352 -205 -50 -34 -94 -61 -97 -61 -8 0 -108 -71 -140 -101 -39 -35 -63
-47 -123 -60 -83 -17 -127 16 -141 107 l-6 44 -100 -76 c-55 -41 -137 -97
-182 -125 -121 -74 -385 -196 -348 -162 6 5 40 22 76 37 190 78 390 212 644
430 277 238 591 397 890 451 95 18 313 18 402 1z m1023 -546 c52 -6 119 -17
149 -26 64 -18 166 -62 159 -69 -2 -2 -67 1 -144 7 -122 10 -153 9 -233 -6
-50 -9 -97 -13 -103 -10 -6 4 -8 3 -5 -3 5 -9 -70 -33 -118 -39 -11 -1 -56 -5
-100 -9 -59 -6 -104 -18 -169 -47 -49 -21 -96 -38 -104 -38 -35 0 -228 -140
-377 -273 -101 -91 -135 -112 -167 -104 -21 6 -23 -4 -6 -21 9 -9 9 -15 1 -23
-20 -20 -51 1 -69 47 -26 68 -9 112 75 195 70 68 270 208 370 258 158 80 362
144 526 164 62 8 224 6 315 -3z m1076 -49 c-6 -9 -114 -30 -456 -86 -118 -20
-242 -42 -275 -50 -33 -8 -96 -21 -140 -30 -280 -58 -638 -212 -835 -358 -109
-81 -126 -90 -70 -39 65 60 265 183 400 246 234 109 521 182 1020 261 14 2 61
9 105 15 64 8 239 42 253 49 2 0 1 -3 -2 -8z m-4176 -351 c-8 -5 -19 -10 -25
-10 -5 0 -3 5 5 10 8 5 20 10 25 10 6 0 3 -5 -5 -10z m-133 -36 c-3 -3 -12 -4
-19 -1 -8 3 -5 6 6 6 11 1 17 -2 13 -5z m1672 -237 c-20 -18 -69 -61 -110 -96
-69 -59 -70 -60 -19 -10 81 80 149 139 157 139 5 -1 -8 -15 -28 -33z m-189
-161 c0 -5 -119 -100 -140 -111 -26 -14 1 10 70 64 68 52 70 54 70 47z m1929
-5 c23 -6 22 -9 -30 -42 -98 -65 -441 -246 -619 -328 -193 -88 -280 -118 -280
-97 0 17 170 184 250 245 194 148 539 261 679 222z m-2159 -165 c0 -2 -8 -10
-17 -17 -16 -13 -17 -12 -4 4 13 16 21 21 21 13z"/>
<path d="M5485 7548 c-3 -7 -27 -78 -54 -158 -72 -213 -232 -676 -370 -1075
-158 -453 -391 -1148 -391 -1163 0 -9 200 -12 835 -12 459 0 835 4 835 8 0 9
-227 669 -326 947 -31 88 -114 327 -184 530 -307 890 -323 935 -335 935 -3 0
-8 -6 -10 -12z m374 -1879 c13 -33 21 -62 19 -63 -15 -14 -63 -30 -164 -56
-204 -53 -456 -52 -515 3 l-24 22 60 8 c250 31 298 41 425 84 74 24 142 49
150 54 24 14 26 12 49 -52z m36 -189 c-3 -5 -23 -9 -43 -9 l-37 1 30 8 c44 11
57 11 50 0z"/>
</g>
</svg>
